<?xml version="1.0" encoding="UTF-8"?>
<svg xmlns="http://www.w3.org/2000/svg" viewBox="0 0 890.74 866.81">
  <defs>
    <style>
      .grid{fill:none;stroke:#000;stroke-linecap:round;stroke-linejoin:round;stroke-width:24px;}
      .axis{fill:none;stroke:#000;stroke-linecap:round;stroke-width:18px;}
      .profile{fill:none;stroke:#000;stroke-linecap:round;stroke-linejoin:round;stroke-width:54px;}
      .node{fill:#000;}
    </style>
  </defs>
  <polygon class="grid" points="445.37 83.4 692.86 185.91 795.37 433.4 692.86 680.89 445.37 783.4 197.88 680.89 95.37 433.4 197.88 185.91"/>
  <polygon class="grid" points="445.37 198.4 611.54 267.23 680.37 433.4 611.54 599.57 445.37 668.4 279.2 599.57 210.37 433.4 279.2 267.23"/>
  <polygon class="grid" points="445.37 313.4 530.22 348.55 565.37 433.4 530.22 518.25 445.37 553.4 360.52 518.25 325.37 433.4 360.52 348.55"/>
  <line class="axis" x1="445.37" y1="433.4" x2="445.37" y2="83.4"/>
  <line class="axis" x1="445.37" y1="433.4" x2="692.86" y2="185.91"/>
  <line class="axis" x1="445.37" y1="433.4" x2="795.37" y2="433.4"/>
  <line class="axis" x1="445.37" y1="433.4" x2="692.86" y2="680.89"/>
  <line class="axis" x1="445.37" y1="433.4" x2="445.37" y2="783.4"/>
  <line class="axis" x1="445.37" y1="433.4" x2="197.88" y2="680.89"/>
  <line class="axis" x1="445.37" y1="433.4" x2="95.37" y2="433.4"/>
  <line class="axis" x1="445.37" y1="433.4" x2="197.88" y2="185.91"/>
  <polygon class="profile" points="445.37 150.4 635.37 244.4 710.37 433.4 585.37 573.4 445.37 625.4 285.37 595.4 215.37 433.4 350.37 335.4"/>
  <circle class="node" cx="445.37" cy="150.4" r="28"/>
  <circle class="node" cx="635.37" cy="244.4" r="28"/>
  <circle class="node" cx="710.37" cy="433.4" r="28"/>
  <circle class="node" cx="585.37" cy="573.4" r="28"/>
  <circle class="node" cx="445.37" cy="625.4" r="28"/>
  <circle class="node" cx="285.37" cy="595.4" r="28"/>
  <circle class="node" cx="215.37" cy="433.4" r="28"/>
  <circle class="node" cx="350.37" cy="335.4" r="28"/>
  <circle class="node" cx="445.37" cy="433.4" r="34"/>
</svg>
