<?xml version="1.0" encoding="UTF-8"?><svg id="_レイヤー_2" xmlns="http://www.w3.org/2000/svg" viewBox="0 0 49.37 10.43"><defs><style>.cls-1{fill:#ffffff;}</style></defs><g id="_制作レイヤー"><g id="_レイヤー_1-2"><polygon class="cls-1" points="4.83 10.25 0 10.25 6.22 0 11.06 0 4.83 10.25"/><polygon class="cls-1" points="12.24 8.04 7.41 8.03 8.81 5.71 13.64 5.71 12.72 7.27 15.04 7.27 13.18 10.27 10.89 10.27 11.32 9.54 6.5 9.51 6.92 8.81 11.77 8.81 12.24 8.04"/><path class="cls-1" d="M19.31.19h3.53l3.44,10.09h-3.18l-.49-1.66h-3.15l-.54,1.66h-3.17L19.31.19ZM22.05,6.4l-1.02-3.72-1.02,3.72h2.05Z"/><path class="cls-1" d="M26.25,5.23C26.25,2.71,26.99.03,30.99.03c3.47,0,4.65,2.03,4.65,4.4h-3.03c-.16-1.47-.61-1.95-1.62-1.95-1.48,0-1.69,1.26-1.69,2.76s.13,2.77,1.69,2.77c1.02,0,1.43-.49,1.62-2h3.03c0,2.47-1.17,4.43-4.65,4.43-4.02,0-4.74-2.68-4.74-5.2Z"/><path class="cls-1" d="M37.11.19h4.29l1.84,6.79,1.84-6.79h4.29v10.09h-3.01v-6.15l-1.73,6.15h-2.77l-1.73-6.16v6.16h-3.01V.19Z"/></g></g></svg>